<svg width="20px" height="20px" class="hidden">
  <symbol fill="inherit" xmlns="http://www.w3.org/2000/svg" viewBox="0 0 12 12" id="burger">
    <path d="M12 0H0V2H12V0Z" fill="inherit"></path>
    <path d="M12 5H0V7H12V5Z" fill="inherit"></path>
    <path d="M12 10H0V12H12V10Z" fill="inherit"></path>
  </symbol>
    <symbol fill="inherit" xmlns="http://www.w3.org/2000/svg" viewBox="0 0 18 19" id="delete">
      <path d="M2 17C2 18.103 2.897 19 4 19H14C15.103 19 16 18.103 16 17V5H2V17ZM4 7H14L14.002 17H4V7Z" fill="inherit"></path>
      <path d="M12 2V0H6V2H0V4H18V2H12Z" fill="inherit"></path>
      <path d="M8 9H6V15H8V9Z" fill="inherit"></path>
      <path d="M12 9H10V15H12V9Z" fill="inherit"></path>
    </symbol>
  <symbol fill="inherit" xmlns="http://www.w3.org/2000/svg" viewBox="0 0 14 12" id="favorite">
    <g clip-path="url(#clip0_9_134)">
      <path d="M6.75 12C6.612 12 6.47398 11.9618 6.35248 11.886C6.09298 11.724 0 7.86825 0 3.75C0 1.68225 1.68225 0 3.75 0C4.9455 0 6.05325 0.627717 6.75 1.55997C7.44675 0.627717 8.5545 0 9.75 0C11.8177 0 13.5 1.68225 13.5 3.75C13.5 7.86825 7.40702 11.724 7.14752 11.886C7.02602 11.9618 6.888 12 6.75 12ZM3.75 1.5C2.5095 1.5 1.5 2.5095 1.5 3.75C1.5 6.27225 4.98225 9.15527 6.75 10.3545C8.51775 9.15527 12 6.273 12 3.75C12 2.5095 10.9905 1.5 9.75 1.5C8.48325 1.5 7.5 2.70975 7.5 3.75C7.5 4.164 7.164 4.5 6.75 4.5C6.336 4.5 6 4.164 6 3.75C6 2.70975 5.01675 1.5 3.75 1.5Z" fill="inherit"></path>
    </g>
    <defs>
      <clipPath id="clip0_9_134">
        <rect width="13.5" height="12" fill="inherit"></rect>
      </clipPath>
    </defs>
  </symbol>
  <symbol fill="inherit" xmlns="http://www.w3.org/2000/svg" viewBox="0 0 14 12" id="favorite1">
    <g clip-path="url(#clip0_46_517)">
      <path d="M6.75 12C6.612 12 6.47398 11.9618 6.35248 11.886C6.09298 11.724 0 7.86825 0 3.75C0 1.68225 1.68225 0 3.75 0C4.9455 0 6.05325 0.627717 6.75 1.55997C7.44675 0.627717 8.5545 0 9.75 0C11.8177 0 13.5 1.68225 13.5 3.75C13.5 7.86825 7.40702 11.724 7.14752 11.886C7.02602 11.9618 6.888 12 6.75 12Z" fill="inherit"></path>
    </g>
    <defs>
      <clipPath id="clip0_46_517">
        <rect width="13.5" height="12" fill="inherit"></rect>
      </clipPath>
    </defs>
  </symbol>
  <symbol viewBox="0 0 0 0" id="iconsSprite">
    <symbol fill="inherit" xmlns="http://www.w3.org/2000/svg" viewBox="0 0 12 12" id="iconsSprite">
      <path d="M12 0H0V2H12V0Z" fill="inherit"></path>
      <path d="M12 5H0V7H12V5Z" fill="inherit"></path>
      <path d="M12 10H0V12H12V10Z" fill="inherit"></path>
    </symbol>
    <symbol fill="inherit" xmlns="http://www.w3.org/2000/svg" viewBox="0 0 14 12" id="favorite">
      <g clip-path="url(#clip0_46_517)">
        <path d="M6.75 12C6.612 12 6.47398 11.9618 6.35248 11.886C6.09298 11.724 0 7.86825 0 3.75C0 1.68225 1.68225 0 3.75 0C4.9455 0 6.05325 0.627717 6.75 1.55997C7.44675 0.627717 8.5545 0 9.75 0C11.8177 0 13.5 1.68225 13.5 3.75C13.5 7.86825 7.40702 11.724 7.14752 11.886C7.02602 11.9618 6.888 12 6.75 12Z" fill="inherit"></path>
      </g>
      <defs>
        <clipPath id="clip0_46_517">
          <rect width="13.5" height="12" fill="inherit"></rect>
        </clipPath>
      </defs>
    </symbol>
    <symbol fill="inherit" xmlns="http://www.w3.org/2000/svg" viewBox="0 0 12 12" id="favorite1">
      <path d="M12 11.139L8.7167 7.85508C9.37921 7.00502 9.74273 5.96681 9.74273 4.87137C9.74273 3.5701 9.23611 2.34678 8.31542 1.42731C7.39535 0.506622 6.17263 0 4.87137 0C3.5701 0 2.34739 0.506622 1.42731 1.42731C0.507227 2.34678 0 3.5701 0 4.87137C0 6.17263 0.507227 7.39595 1.42731 8.31542C2.34739 9.23611 3.5701 9.74273 4.87137 9.74273C5.96681 9.74273 7.00502 9.37981 7.85507 8.71609L11.139 11.9994L12 11.139ZM4.87137 8.52489C3.89587 8.52489 2.97823 8.14492 2.28832 7.45502C1.59781 6.76511 1.21784 5.84686 1.21784 4.87137C1.21784 3.89587 1.59781 2.97823 2.28832 2.28832C2.97823 1.59781 3.89587 1.21784 4.87137 1.21784C5.84686 1.21784 6.7645 1.59781 7.45441 2.28832C8.14493 2.97823 8.52489 3.89587 8.52489 4.87137C8.52489 5.84686 8.14493 6.76511 7.45441 7.45502C6.7645 8.14492 5.84686 8.52489 4.87137 8.52489Z" fill="inherit"></path>
    </symbol>
  </symbol>
  <symbol fill="inherit" xmlns="http://www.w3.org/2000/svg" viewBox="0 0 12 12" id="search">
    <path d="M12 11.139L8.7167 7.85508C9.37921 7.00502 9.74273 5.96681 9.74273 4.87137C9.74273 3.5701 9.23611 2.34678 8.31542 1.42731C7.39535 0.506622 6.17263 0 4.87137 0C3.5701 0 2.34739 0.506622 1.42731 1.42731C0.507227 2.34678 0 3.5701 0 4.87137C0 6.17263 0.507227 7.39595 1.42731 8.31542C2.34739 9.23611 3.5701 9.74273 4.87137 9.74273C5.96681 9.74273 7.00502 9.37981 7.85507 8.71609L11.139 11.9994L12 11.139ZM4.87137 8.52489C3.89587 8.52489 2.97823 8.14492 2.28832 7.45502C1.59781 6.76511 1.21784 5.84686 1.21784 4.87137C1.21784 3.89587 1.59781 2.97823 2.28832 2.28832C2.97823 1.59781 3.89587 1.21784 4.87137 1.21784C5.84686 1.21784 6.7645 1.59781 7.45441 2.28832C8.14493 2.97823 8.52489 3.89587 8.52489 4.87137C8.52489 5.84686 8.14493 6.76511 7.45441 7.45502C6.7645 8.14492 5.84686 8.52489 4.87137 8.52489Z" fill="inherit"></path>
  </symbol>
  <symbol fill="inherit" xmlns="http://www.w3.org/2000/svg" viewBox="0 0 11 12" id="sort">
    <path d="M5.05342 3.90121L5.94658 3L2.97329 0L0 3L0.893155 3.90121L2.34161 2.43977V9.82409H3.60497V2.43977L5.05342 3.90121Z" fill="inherit"></path>
    <path d="M10.1069 8.09866L8.6584 9.5601V2.17578H7.39505V9.5601L5.94659 8.09866L5.05344 8.99987L8.02672 11.9999L11 8.99987L10.1069 8.09866Z" fill="inherit"></path>
  </symbol>
</svg>